<?xml version="1.0" encoding="UTF-8" standalone="no"?>
<!DOCTYPE svg PUBLIC "-//W3C//DTD SVG 1.1//EN" "http://www.w3.org/Graphics/SVG/1.1/DTD/svg11.dtd">
<svg width="100%" height="100%" viewBox="0 0 110 32" version="1.1" xmlns="http://www.w3.org/2000/svg" xmlns:xlink="http://www.w3.org/1999/xlink" xml:space="preserve" xmlns:serif="http://www.serif.com/" style="fill-rule:evenodd;clip-rule:evenodd;stroke-linejoin:round;stroke-miterlimit:1.41421;">
    <g transform="matrix(1,0,0,1,-458,-725)">
        <path d="M494.141,740.823C493.581,741.254 493.248,741.369 492.784,741.485C492.626,741.662 492.044,742.29 491.898,742.466C492.051,742.842 492.2,743.204 492.344,743.551C493.559,742.28 495.488,740.505 497.284,739.218C497.348,738.918 497.414,738.61 497.483,738.283L497.52,738.11C497.597,737.745 497.664,737.417 497.726,737.115C497.145,737.538 496.055,738.501 495.514,738.937C495.283,739.714 494.786,740.327 494.141,740.823Z" style="fill:rgb(255,128,36);fill-rule:nonzero;"/>
        <path d="M501.908,736.445C503.085,735.79 504.722,734.934 506.015,734.318C506.068,734.135 506.12,733.955 506.168,733.782L506.185,733.707L506.103,733.746C506.355,733.776 506.677,733.813 507.05,733.832C507.944,733.432 509.206,732.906 510.142,732.533C522.103,727.767 533.253,726.918 536.669,730.255C536.628,730.058 536.56,729.871 536.498,729.679C535.072,725.222 522.342,725.463 509.592,730.61C507.641,731.398 505.002,732.707 502.512,734.147L502.494,734.213C502.298,734.918 502.102,735.668 501.908,736.445Z" style="fill:rgb(255,128,36);fill-rule:nonzero;"/>
        <path d="M535.809,733.878C536.331,733.887 536.875,733.893 537.442,733.897C537.603,733.088 537.759,732.138 537.491,731.465C537.311,731.014 537.033,730.61 536.669,730.254C536.882,731.284 536.443,732.643 535.809,733.878Z" style="fill:rgb(255,128,36);fill-rule:nonzero;"/>
        <path d="M521.396,745.419C520.794,745.653 519.834,746.017 519.214,746.251C519.168,747.037 519.133,747.814 519.112,748.568L519.115,749.108C519.484,748.965 520.225,748.676 520.599,748.527L520.616,748.459C520.839,747.663 521.113,746.604 521.396,745.419Z" style="fill:rgb(255,128,36);fill-rule:nonzero;"/>
        <path d="M535.916,735.856C535.482,735.856 535.015,735.872 534.55,735.899C533.579,737.047 531.904,738.653 530.43,739.825C530.535,739.819 530.64,739.811 530.748,739.803L531.284,739.764L531.147,740.143C530.945,740.579 530.811,741.425 530.786,742.08L531.002,742.117C533.188,740.397 535.155,738.459 536.313,736.819C536.376,736.458 536.439,736.136 536.478,735.86C536.318,735.857 536.088,735.856 535.916,735.856Z" style="fill:rgb(255,128,36);fill-rule:nonzero;"/>
        <path d="M517.104,748.651C516.279,748.651 515.652,748.683 515.068,748.753L514.764,748.779L514.829,748.482C514.849,748.379 514.87,748.27 514.89,748.161C503.712,752.216 494.141,752.817 491.071,748.695C490.817,748.711 490.548,748.731 490.24,748.755L490.078,748.765C490.078,748.765 489.79,747.651 489.756,747.486C489.714,747.706 489.648,748.245 489.707,748.714C489.738,748.962 489.796,749.234 489.955,749.657C491.61,754.062 503.864,755.172 517.101,749.897C517.825,749.609 518.533,749.37 519.23,749.064L519.26,748.798L518.858,748.752C518.368,748.682 517.827,748.651 517.104,748.651Z" style="fill:rgb(255,128,36);fill-rule:nonzero;"/>
        <path d="M527.572,741.896C527.501,741.896 527.426,741.899 527.353,741.9C527.002,742.125 526.222,742.756 525.856,742.978C525.649,743.951 525.469,744.965 525.319,746.01C527.883,744.512 530.085,742.824 531.064,742.064L530.774,742.062C529.669,741.954 528.562,741.896 527.572,741.896Z" style="fill:rgb(255,128,36);fill-rule:nonzero;"/>
        <path d="M465.524,735.405C464.914,737.741 464.766,738.478 464.282,740.982C464.493,740.982 464.661,741.003 465.061,741.003C465.461,741.003 466.387,741.003 467.081,740.456C467.797,739.888 468.26,738.436 468.26,737.32C468.26,735.405 466.724,735.405 465.524,735.405ZM469.859,741.424C468.639,742.266 466.639,742.413 465.84,742.413C465.503,742.413 464.787,742.392 463.988,742.287C463.567,744.033 463.02,746.854 462.809,748.558C462.199,748.495 461.504,748.453 460.873,748.453C460.242,748.453 459.61,748.495 459,748.558C460.094,744.476 460.178,744.097 461.61,736.984C461.946,735.3 462.009,734.689 462.073,733.995C462.788,734.058 463.42,734.079 464.009,734.079C465.208,734.079 466.576,733.995 468.176,733.995C470.449,733.995 471.838,735.153 471.838,737.468C471.838,738.541 471.438,740.33 469.859,741.424Z" style="fill:rgb(111,117,125);fill-rule:nonzero;"/>
        <path d="M474.678,733.995C475.709,734.037 476.972,734.1 478.003,734.1C479.371,734.1 482.002,734.079 483.264,733.995C482.991,734.584 482.865,735.026 482.759,735.91C481.497,735.721 479.918,735.679 479.013,735.679C478.761,735.679 478.529,735.679 478.003,735.7C477.477,737.846 477.435,738.099 477.014,740.077C479.455,740.077 480.381,740.077 481.791,739.972C481.518,740.561 481.412,741.319 481.391,741.866C479.897,741.719 478.761,741.697 478.15,741.697C477.687,741.697 477.203,741.719 476.677,741.74C476.277,743.423 475.983,745.149 475.772,746.874C478.108,746.874 479.371,746.854 480.613,746.559C480.318,747.148 480.171,747.843 480.171,748.558C478.319,748.453 477.666,748.453 476.067,748.453C473.752,748.453 473.163,748.474 471.584,748.558C472.51,745.254 474.152,737.699 474.678,733.995Z" style="fill:rgb(111,117,125);fill-rule:nonzero;"/>
        <path d="M487.789,740.645C489.031,740.645 489.725,740.645 490.462,740.245C491.577,739.635 491.977,738.477 491.977,737.446C491.977,735.573 490.63,735.405 488.883,735.405C488.357,737.467 488.189,738.351 487.789,740.645ZM487.536,741.824C487.116,743.781 486.547,746.622 486.253,748.558C485.579,748.474 485.201,748.453 484.422,748.453C483.643,748.453 482.906,748.495 482.444,748.558C483.138,746.18 484.59,740.056 485.516,733.995C486.063,734.037 486.632,734.079 487.389,734.079C488.441,734.079 489.936,733.995 491.409,733.995C493.85,733.995 495.555,734.858 495.555,737.446C495.555,738.625 495.113,739.845 494.039,740.666C493.24,741.277 492.272,741.466 491.304,741.529C492.251,743.865 493.429,746.706 494.313,748.558C493.955,748.516 493.177,748.453 492.356,748.453C491.598,748.453 491.03,748.495 490.209,748.558C489.662,746.474 489.304,745.254 487.957,741.824L487.536,741.824Z" style="fill:rgb(111,117,125);fill-rule:nonzero;"/>
        <path d="M500.331,734.1C501.236,734.1 501.762,734.058 502.309,733.995C501.11,738.309 499.868,744.412 499.195,748.558C498.458,748.474 497.974,748.453 497.174,748.453C496.543,748.453 495.975,748.495 495.343,748.558C495.975,746.432 496.143,745.633 497.658,738.498C498.227,735.805 498.332,734.942 498.458,733.995C498.816,734.037 499.679,734.1 500.331,734.1Z" style="fill:rgb(111,117,125);fill-rule:nonzero;"/>
        <path d="M517.525,733.995C517.904,734.058 518.304,734.1 518.914,734.1C519.608,734.1 520.029,734.037 520.429,733.995C519.903,736.773 519.061,743.192 518.914,748.558C518.325,748.474 517.714,748.453 517.104,748.453C516.41,748.453 515.715,748.474 515.021,748.558C515.547,745.843 516.178,741.024 516.325,738.983C514.894,740.898 511.569,745.886 510.012,748.558C509.696,748.495 509.422,748.495 509.233,748.495C508.939,748.495 508.644,748.516 508.454,748.558C508.223,746.727 507.402,742.287 506.434,738.962C505.655,741.129 504.498,744.644 503.488,748.558C503.277,748.516 502.899,748.453 502.436,748.453C501.952,748.453 501.489,748.516 501.278,748.558C502.52,745.654 505.15,738.267 506.35,733.995C506.708,734.037 507.213,734.1 507.823,734.1C508.434,734.1 508.876,734.058 509.275,733.995C509.591,737.068 510.138,740.098 511.043,743.697C513.547,740.498 516.473,735.847 517.525,733.995Z" style="fill:rgb(111,117,125);fill-rule:nonzero;"/>
        <path d="M523.901,733.995C524.932,734.037 526.195,734.1 527.226,734.1C528.594,734.1 531.225,734.079 532.487,733.995C532.214,734.584 532.087,735.026 531.982,735.91C530.72,735.721 529.141,735.679 528.236,735.679C527.984,735.679 527.752,735.679 527.226,735.7C526.7,737.846 526.658,738.099 526.237,740.077C528.678,740.077 529.604,740.077 531.014,739.972C530.741,740.561 530.635,741.319 530.614,741.866C529.12,741.719 527.984,741.697 527.374,741.697C526.911,741.697 526.427,741.719 525.9,741.74C525.501,743.423 525.206,745.149 524.995,746.874C527.331,746.874 528.594,746.854 529.836,746.559C529.541,747.148 529.394,747.843 529.394,748.558C527.542,748.453 526.89,748.453 525.29,748.453C522.975,748.453 522.386,748.474 520.807,748.558C521.733,745.254 523.375,737.699 523.901,733.995Z" style="fill:rgb(111,117,125);fill-rule:nonzero;"/>
        <path d="M538.485,744.37C537.959,746.811 537.853,747.758 537.748,748.558C537.096,748.474 536.422,748.453 535.749,748.453C535.118,748.453 534.486,748.495 533.855,748.558C534.907,744.854 536.444,737.804 536.675,735.678C536.38,735.657 536.065,735.657 535.728,735.657C534.676,735.657 533.518,735.742 532.782,735.847C533.013,735.173 533.118,734.668 533.161,733.995C535.076,734.079 537.222,734.1 538.906,734.1C540.674,734.1 543.262,734.037 544.651,733.995C544.441,734.563 544.293,735.215 544.23,735.847C543.388,735.699 542.505,735.657 541.831,735.657C541.452,735.657 540.968,735.657 540.505,735.678C540.127,736.836 539.706,738.709 538.485,744.37Z" style="fill:rgb(111,117,125);fill-rule:nonzero;"/>
        <path d="M546.124,733.995C547.155,734.037 548.418,734.1 549.449,734.1C550.817,734.1 553.448,734.079 554.71,733.995C554.437,734.584 554.311,735.026 554.205,735.91C552.943,735.721 551.364,735.679 550.459,735.679C550.207,735.679 549.975,735.679 549.449,735.7C548.923,737.846 548.881,738.099 548.46,740.077C550.901,740.077 551.827,740.077 553.237,739.972C552.964,740.561 552.858,741.319 552.837,741.866C551.343,741.719 550.207,741.697 549.597,741.697C549.134,741.697 548.65,741.719 548.123,741.74C547.724,743.423 547.429,745.149 547.219,746.874C549.554,746.874 550.817,746.854 552.059,746.559C551.764,747.148 551.617,747.843 551.617,748.558C549.765,748.453 549.113,748.453 547.513,748.453C545.198,748.453 544.609,748.474 543.03,748.558C543.956,745.254 545.598,737.699 546.124,733.995Z" style="fill:rgb(111,117,125);fill-rule:nonzero;"/>
        <path d="M559.235,740.645C560.477,740.645 561.171,740.645 561.908,740.245C563.023,739.635 563.423,738.477 563.423,737.446C563.423,735.573 562.076,735.405 560.329,735.405C559.803,737.467 559.635,738.351 559.235,740.645ZM558.982,741.824C558.561,743.781 557.993,746.622 557.699,748.558C557.025,748.474 556.646,748.453 555.868,748.453C555.089,748.453 554.352,748.495 553.889,748.558C554.584,746.18 556.036,740.056 556.962,733.995C557.509,734.037 558.078,734.079 558.835,734.079C559.887,734.079 561.382,733.995 562.855,733.995C565.296,733.995 567,734.858 567,737.446C567,738.625 566.559,739.845 565.485,740.666C564.686,741.277 563.717,741.466 562.749,741.529C563.697,743.865 564.875,746.706 565.759,748.558C565.401,748.516 564.623,748.453 563.802,748.453C563.044,748.453 562.476,748.495 561.655,748.558C561.108,746.474 560.75,745.254 559.403,741.824L558.982,741.824Z" style="fill:rgb(111,117,125);fill-rule:nonzero;"/>
        <path d="M538.516,753.823L538.143,752.614L537.602,753.823L538.516,753.823ZM537.248,754.709L536.719,755.924L535.336,755.924C535.763,755.184 537.122,752.444 537.452,751.703L538.967,751.703C539.43,753.121 539.928,754.525 540.439,755.924L539.105,755.924C539.003,755.513 538.865,755.114 538.726,754.709L537.248,754.709Z" style="fill:rgb(111,117,125);fill-rule:nonzero;"/>
        <path d="M541.281,755.924C540.854,754.506 540.367,753.108 539.899,751.703L541.197,751.703C541.558,753.095 541.834,753.76 542.092,754.842L542.104,754.842C542.495,753.791 543.018,752.772 543.427,751.703L544.743,751.703C544.052,753.101 543.367,754.5 542.724,755.924L541.281,755.924Z" style="fill:rgb(111,117,125);fill-rule:nonzero;"/>
        <path d="M544.755,755.924C544.833,754.677 544.929,753.424 544.929,751.703L546.233,751.703C546.125,753.108 546.077,754.519 546.071,755.924L544.755,755.924Z" style="fill:rgb(111,117,125);fill-rule:nonzero;"/>
        <path d="M549.4,753.823L549.027,752.614L548.486,753.823L549.4,753.823ZM548.132,754.709L547.603,755.924L546.22,755.924C546.647,755.184 548.006,752.444 548.336,751.703L549.851,751.703C550.314,753.121 550.812,754.525 551.323,755.924L549.989,755.924C549.887,755.513 549.749,755.114 549.61,754.709L548.132,754.709Z" style="fill:rgb(111,117,125);fill-rule:nonzero;"/>
        <path d="M554.521,751.703L554.485,752.64C554.437,752.633 553.704,752.608 553.241,752.608C553.169,753.614 553.115,755.133 553.109,755.924L551.816,755.924C551.912,754.911 551.979,753.886 551.991,752.608C551.576,752.608 551.161,752.627 550.741,752.64L550.771,751.703L554.521,751.703Z" style="fill:rgb(111,117,125);fill-rule:nonzero;"/>
        <path d="M554.587,755.924C554.665,754.677 554.761,753.424 554.761,751.703L556.066,751.703C555.957,753.108 555.909,754.519 555.903,755.924L554.587,755.924Z" style="fill:rgb(111,117,125);fill-rule:nonzero;"/>
        <path d="M557.634,753.893C557.634,754.589 558.097,755.076 558.758,755.076C559.479,755.076 559.918,754.469 559.918,753.748C559.918,753.064 559.485,752.552 558.824,752.552C558.091,752.552 557.634,753.146 557.634,753.893ZM561.18,753.716C561.18,755.254 560.098,756 558.734,756C557.502,756 556.372,755.38 556.372,753.937C556.372,752.191 557.706,751.628 558.866,751.628C560.092,751.628 561.18,752.305 561.18,753.716Z" style="fill:rgb(111,117,125);fill-rule:nonzero;"/>
        <path d="M564.552,754.437L564.564,754.437C564.594,754.032 564.666,752.444 564.666,751.703L565.814,751.703C565.778,752.133 565.61,754.817 565.592,755.924L564.125,755.924C563.663,755.007 563.109,754.133 562.683,753.241L562.671,753.241C562.653,753.621 562.581,755.291 562.581,755.924L561.427,755.924C561.505,755.253 561.631,752.918 561.631,751.703L563.133,751.703L564.552,754.437Z" style="fill:rgb(111,117,125);fill-rule:nonzero;"/>
    </g>
</svg>
